<mxfile host="app.diagrams.net" modified="2023-10-18T11:56:27.245Z" agent="Mozilla/5.0 (Windows NT 10.0; Win64; x64) AppleWebKit/537.36 (KHTML, like Gecko) Chrome/118.0.0.0 Safari/537.36" etag="IKzosMsqIeSnDmmUO7gh" version="22.0.4" type="github">
  <diagram id="C5RBs43oDa-KdzZeNtuy" name="Page-1">
    <mxGraphModel dx="954" dy="610" grid="1" gridSize="10" guides="1" tooltips="1" connect="1" arrows="1" fold="1" page="1" pageScale="1" pageWidth="827" pageHeight="1169" math="0" shadow="0">
      <root>
        <mxCell id="WIyWlLk6GJQsqaUBKTNV-0" />
        <mxCell id="WIyWlLk6GJQsqaUBKTNV-1" parent="WIyWlLk6GJQsqaUBKTNV-0" />
        <mxCell id="WIyWlLk6GJQsqaUBKTNV-2" value="" style="rounded=0;html=1;jettySize=auto;orthogonalLoop=1;fontSize=11;endArrow=block;endFill=0;endSize=8;strokeWidth=1;shadow=0;labelBackgroundColor=none;edgeStyle=orthogonalEdgeStyle;entryX=0.5;entryY=0;entryDx=0;entryDy=0;" parent="WIyWlLk6GJQsqaUBKTNV-1" source="WIyWlLk6GJQsqaUBKTNV-3" target="6BG4VIvmiKpCBwdJLPWq-0" edge="1">
          <mxGeometry relative="1" as="geometry">
            <mxPoint x="220" y="170" as="targetPoint" />
          </mxGeometry>
        </mxCell>
        <mxCell id="WIyWlLk6GJQsqaUBKTNV-3" value="Customer Found Cashback Card" style="rounded=1;whiteSpace=wrap;html=1;fontSize=12;glass=0;strokeWidth=1;shadow=0;" parent="WIyWlLk6GJQsqaUBKTNV-1" vertex="1">
          <mxGeometry x="220" y="40" width="120" height="40" as="geometry" />
        </mxCell>
        <mxCell id="6BG4VIvmiKpCBwdJLPWq-5" style="edgeStyle=orthogonalEdgeStyle;rounded=0;orthogonalLoop=1;jettySize=auto;html=1;exitX=0.5;exitY=1;exitDx=0;exitDy=0;" edge="1" parent="WIyWlLk6GJQsqaUBKTNV-1" source="6BG4VIvmiKpCBwdJLPWq-26" target="6BG4VIvmiKpCBwdJLPWq-7">
          <mxGeometry relative="1" as="geometry">
            <mxPoint x="280" y="400" as="targetPoint" />
          </mxGeometry>
        </mxCell>
        <mxCell id="6BG4VIvmiKpCBwdJLPWq-0" value="&lt;div&gt;How to Redeem Cash Back Rewards?&lt;/div&gt;&lt;div&gt;&lt;br&gt;&lt;/div&gt;&lt;div&gt;*Step 1 -&lt;/div&gt;&lt;div&gt;&amp;nbsp; &amp;nbsp; &amp;nbsp; &amp;nbsp; &amp;nbsp; &amp;nbsp; Share with us a picture of a cashback card.&lt;/div&gt;&lt;div&gt;*Step 2 -&lt;/div&gt;&lt;div&gt;&amp;nbsp; &amp;nbsp; &amp;nbsp; &amp;nbsp; &amp;nbsp; &amp;nbsp; Share us your Order ID and Written Review screenshot.&lt;/div&gt;&lt;div&gt;*Step 3 -&lt;/div&gt;&lt;div&gt;&amp;nbsp; &amp;nbsp; &amp;nbsp; &amp;nbsp; &amp;nbsp; &amp;nbsp; &amp;nbsp;Help us with your Reviewer name/Account name.&lt;/div&gt;&lt;div&gt;*Step 4-&lt;/div&gt;&lt;div&gt;&amp;nbsp; &amp;nbsp; &amp;nbsp; &amp;nbsp; &amp;nbsp; &amp;nbsp; &amp;nbsp;Share with us your UPI ID for cashback payment.&lt;/div&gt;" style="rounded=1;whiteSpace=wrap;html=1;" vertex="1" parent="WIyWlLk6GJQsqaUBKTNV-1">
          <mxGeometry x="125" y="130" width="310" height="220" as="geometry" />
        </mxCell>
        <mxCell id="6BG4VIvmiKpCBwdJLPWq-4" value="He/She Text us on WhatApp" style="text;html=1;align=center;verticalAlign=middle;resizable=0;points=[];autosize=1;strokeColor=none;fillColor=none;" vertex="1" parent="WIyWlLk6GJQsqaUBKTNV-1">
          <mxGeometry x="280" y="88" width="170" height="30" as="geometry" />
        </mxCell>
        <mxCell id="6BG4VIvmiKpCBwdJLPWq-17" value="" style="edgeStyle=orthogonalEdgeStyle;rounded=0;orthogonalLoop=1;jettySize=auto;html=1;" edge="1" parent="WIyWlLk6GJQsqaUBKTNV-1" source="6BG4VIvmiKpCBwdJLPWq-7" target="6BG4VIvmiKpCBwdJLPWq-16">
          <mxGeometry relative="1" as="geometry" />
        </mxCell>
        <mxCell id="6BG4VIvmiKpCBwdJLPWq-32" value="" style="edgeStyle=orthogonalEdgeStyle;rounded=0;orthogonalLoop=1;jettySize=auto;html=1;" edge="1" parent="WIyWlLk6GJQsqaUBKTNV-1" source="6BG4VIvmiKpCBwdJLPWq-7" target="6BG4VIvmiKpCBwdJLPWq-31">
          <mxGeometry relative="1" as="geometry" />
        </mxCell>
        <mxCell id="6BG4VIvmiKpCBwdJLPWq-38" value="Verified" style="edgeLabel;html=1;align=center;verticalAlign=middle;resizable=0;points=[];" vertex="1" connectable="0" parent="6BG4VIvmiKpCBwdJLPWq-32">
          <mxGeometry x="-0.15" y="4" relative="1" as="geometry">
            <mxPoint x="16" as="offset" />
          </mxGeometry>
        </mxCell>
        <mxCell id="6BG4VIvmiKpCBwdJLPWq-7" value="We verify details for the &lt;br&gt;Cashback Card photo, order ID, &lt;br&gt;and written review." style="rhombus;whiteSpace=wrap;html=1;" vertex="1" parent="WIyWlLk6GJQsqaUBKTNV-1">
          <mxGeometry x="140" y="640" width="280" height="210" as="geometry" />
        </mxCell>
        <mxCell id="6BG4VIvmiKpCBwdJLPWq-16" value="Sorry, You&#39;re Not Eligible For Cashback" style="rounded=1;whiteSpace=wrap;html=1;" vertex="1" parent="WIyWlLk6GJQsqaUBKTNV-1">
          <mxGeometry x="580" y="552" width="140" height="65" as="geometry" />
        </mxCell>
        <mxCell id="6BG4VIvmiKpCBwdJLPWq-18" value="Not Verified" style="text;html=1;align=center;verticalAlign=middle;resizable=0;points=[];autosize=1;strokeColor=none;fillColor=none;" vertex="1" parent="WIyWlLk6GJQsqaUBKTNV-1">
          <mxGeometry x="460" y="710" width="90" height="30" as="geometry" />
        </mxCell>
        <mxCell id="6BG4VIvmiKpCBwdJLPWq-24" value="" style="edgeStyle=orthogonalEdgeStyle;rounded=0;orthogonalLoop=1;jettySize=auto;html=1;exitX=0.5;exitY=1;exitDx=0;exitDy=0;" edge="1" parent="WIyWlLk6GJQsqaUBKTNV-1" source="6BG4VIvmiKpCBwdJLPWq-0" target="6BG4VIvmiKpCBwdJLPWq-26">
          <mxGeometry relative="1" as="geometry">
            <mxPoint x="280" y="500" as="targetPoint" />
            <mxPoint x="280" y="350" as="sourcePoint" />
          </mxGeometry>
        </mxCell>
        <mxCell id="6BG4VIvmiKpCBwdJLPWq-27" style="edgeStyle=orthogonalEdgeStyle;rounded=0;orthogonalLoop=1;jettySize=auto;html=1;entryX=0.5;entryY=0;entryDx=0;entryDy=0;" edge="1" parent="WIyWlLk6GJQsqaUBKTNV-1" source="6BG4VIvmiKpCBwdJLPWq-26" target="6BG4VIvmiKpCBwdJLPWq-16">
          <mxGeometry relative="1" as="geometry" />
        </mxCell>
        <mxCell id="6BG4VIvmiKpCBwdJLPWq-26" value="We check both the number&#39;s&lt;br&gt;&amp;nbsp;presence and its corresponding product &lt;br&gt;in our Cashback Database." style="rhombus;whiteSpace=wrap;html=1;" vertex="1" parent="WIyWlLk6GJQsqaUBKTNV-1">
          <mxGeometry x="130" y="390" width="300" height="190" as="geometry" />
        </mxCell>
        <mxCell id="6BG4VIvmiKpCBwdJLPWq-28" value="If Yes" style="text;html=1;align=center;verticalAlign=middle;resizable=0;points=[];autosize=1;strokeColor=none;fillColor=none;" vertex="1" parent="WIyWlLk6GJQsqaUBKTNV-1">
          <mxGeometry x="465" y="458" width="50" height="30" as="geometry" />
        </mxCell>
        <mxCell id="6BG4VIvmiKpCBwdJLPWq-29" value="Else" style="text;html=1;align=center;verticalAlign=middle;resizable=0;points=[];autosize=1;strokeColor=none;fillColor=none;" vertex="1" parent="WIyWlLk6GJQsqaUBKTNV-1">
          <mxGeometry x="275" y="588" width="50" height="30" as="geometry" />
        </mxCell>
        <mxCell id="6BG4VIvmiKpCBwdJLPWq-33" style="edgeStyle=orthogonalEdgeStyle;rounded=0;orthogonalLoop=1;jettySize=auto;html=1;entryX=0.5;entryY=1;entryDx=0;entryDy=0;" edge="1" parent="WIyWlLk6GJQsqaUBKTNV-1" source="6BG4VIvmiKpCBwdJLPWq-31" target="6BG4VIvmiKpCBwdJLPWq-16">
          <mxGeometry relative="1" as="geometry" />
        </mxCell>
        <mxCell id="6BG4VIvmiKpCBwdJLPWq-36" value="" style="edgeStyle=orthogonalEdgeStyle;rounded=0;orthogonalLoop=1;jettySize=auto;html=1;" edge="1" parent="WIyWlLk6GJQsqaUBKTNV-1" source="6BG4VIvmiKpCBwdJLPWq-31" target="6BG4VIvmiKpCBwdJLPWq-35">
          <mxGeometry relative="1" as="geometry" />
        </mxCell>
        <mxCell id="6BG4VIvmiKpCBwdJLPWq-31" value="We check both&amp;nbsp;&amp;nbsp;&lt;br&gt;For UPI Id and its corresponding product&lt;br&gt;in our Cashback Database." style="rounded=1;whiteSpace=wrap;html=1;" vertex="1" parent="WIyWlLk6GJQsqaUBKTNV-1">
          <mxGeometry x="220" y="890" width="120" height="125" as="geometry" />
        </mxCell>
        <mxCell id="6BG4VIvmiKpCBwdJLPWq-34" value="If Present" style="text;html=1;align=center;verticalAlign=middle;resizable=0;points=[];autosize=1;strokeColor=none;fillColor=none;" vertex="1" parent="WIyWlLk6GJQsqaUBKTNV-1">
          <mxGeometry x="390" y="950" width="70" height="30" as="geometry" />
        </mxCell>
        <mxCell id="6BG4VIvmiKpCBwdJLPWq-35" value="We verify the UPI ID with the customer-provided name and initiate the cashback." style="whiteSpace=wrap;html=1;rounded=1;" vertex="1" parent="WIyWlLk6GJQsqaUBKTNV-1">
          <mxGeometry x="220" y="1090" width="120" height="60" as="geometry" />
        </mxCell>
        <mxCell id="6BG4VIvmiKpCBwdJLPWq-37" value="Else" style="text;html=1;align=center;verticalAlign=middle;resizable=0;points=[];autosize=1;strokeColor=none;fillColor=none;" vertex="1" parent="WIyWlLk6GJQsqaUBKTNV-1">
          <mxGeometry x="275" y="1040" width="50" height="30" as="geometry" />
        </mxCell>
      </root>
    </mxGraphModel>
  </diagram>
</mxfile>
